<svg xmlns="http://www.w3.org/2000/svg" aria-hidden="true" style="position:absolute;width:0;height:0;overflow:hidden">
  <defs>
    <symbol id="icon-antenna-1" viewBox="0 0 32 32">
      <path d="m30.784 22.106-8.446-8.508.937-4.617c.242.094.499.144.758.146h.032a2.16 2.16 0 1 0-2.03-1.421l-.005-.015-4.962.605L8.974.16A.53.53 0 0 0 8.597 0a.533.533 0 0 0-.373.155L6.71 1.66a.535.535 0 0 0 0 .754l.814.826c-1.143 2.063-1.816 4.524-1.816 7.142 0 4.107 1.656 7.827 4.337 10.529l-.001-.001c.041.04.09.073.143.097l.003.001c-.034.18-.051.364-.052.547v6.189H3.736a2.671 2.671 0 0 0-2.668 2.668v1.068c0 .295.239.533.533.533h24.542a.533.533 0 0 0 .533-.533v-1.067a2.671 2.671 0 0 0-2.668-2.668h-6.402v-2.743a14.65 14.65 0 0 0 3.048.32h.002a14.798 14.798 0 0 0 7.12-1.822l-.077.039.818.823a.53.53 0 0 0 .377.16.533.533 0 0 0 .373-.155l1.514-1.505a.535.535 0 0 0 0-.754zM23.288 6.235a1.067 1.067 0 1 1 .754 1.822h-.004a1.067 1.067 0 0 1-.747-1.823h-.002zm-1.256 3.506-.598 2.947-1.175-1.182 1.775-1.764zm-.605-.902-1.921 1.91-1.486-1.494 3.406-.415zm2.586 19.971c.884 0 1.601.717 1.601 1.601v.533H2.139v-.533c0-.884.717-1.601 1.601-1.601h20.274zm-7.47-2.134v1.067h-5.335v-1.067h5.335zm-5.335-1.067v-4.054c0-1.294 1.196-2.348 2.668-2.348s2.668 1.053 2.668 2.348v4.054h-5.335zm6.402-1.696v-2.358c0-1.883-1.676-3.414-3.734-3.414h-.058a3.8 3.8 0 0 0-3.215 1.771l-.009.016a13.82 13.82 0 0 1-3.813-9.553c0-2.315.567-4.497 1.569-6.416l-.036.077 18.609 18.715c-1.823.947-3.981 1.503-6.268 1.503-1.079 0-2.13-.124-3.138-.358l.093.018zm11.293-.685L7.839 2.039l.755-.752 7.938 7.983c.004 0 .006.007.01.01l13.12 13.196-.757.752z"/>
      <path d="M13.881 20.274h-.007a1.601 1.601 0 0 0-.003 3.202h.007a1.601 1.601 0 0 0 .003-3.202zm.373 1.979a.534.534 0 0 1-.752-.757.533.533 0 0 1 .373-.155.534.534 0 0 1 .374.911h.005z"/>
    </symbol>
    <symbol id="icon-astronaut-1" viewBox="0 0 32 32">
      <path d="M31.985 4.526a.538.538 0 0 0-.427-.363h-.003l-1.911-.278-.855-1.732c-.179-.365-.777-.365-.956 0l-.855 1.732-1.911.278a.537.537 0 0 0-.297.91l1.384 1.348-.326 1.904a.536.536 0 0 0 .525.624.524.524 0 0 0 .252-.064l-.003.001 1.71-.899 1.71.899a.536.536 0 0 0 .774-.566v.003l-.326-1.904 1.384-1.348a.535.535 0 0 0 .134-.551l.001.004zm-2.464 1.327a.533.533 0 0 0-.153.475v-.003l.191 1.114-1-.526a.525.525 0 0 0-.501.001l.003-.001-1.001.526.191-1.114a.53.53 0 0 0-.153-.472l-.81-.789 1.119-.163a.533.533 0 0 0 .401-.289l.001-.003.5-1.013.5 1.013a.54.54 0 0 0 .399.292h.003l1.119.163-.809.789zm-3.379 14.676h-1.067v1.067h1.067v-1.067zm0 2.135h-1.067v1.067h1.067v-1.067zm1.068-1.067h-1.067v1.067h1.067v-1.067zm-2.134 0h-1.067v1.067h1.067v-1.067zm-2.668 4.801h-1.067v1.067h1.067v-1.067zm0 2.134h-1.067v1.067h1.067v-1.067zm1.067-1.066h-1.067v1.067h1.067v-1.067zm-2.134 0h-1.067v1.067h1.067v-1.067zm-5.335-3.201h-1.067v1.067h1.067v-1.067zm0 2.133h-1.067v1.067h1.067v-1.067zm1.067-1.067h-1.067v1.067h1.067v-1.067zm-2.135 0h-1.067v1.067h1.067v-1.067zM5.869 6.124H4.802v1.067h1.067V6.124zm0 2.134H4.802v1.067h1.067V8.258z"/>
      <path d="M6.935 7.192H5.868v1.067h1.067V7.192zm-2.133 0H3.735v1.067h1.067V7.192z"/>
      <path d="M24.724 14.164a1.778 1.778 0 0 0-1.179-.704l-.009-.001a1.769 1.769 0 0 0-1.344.355l.004-.003-1.252.96-1.899 1.418-1.358-.541c2.422-1.086 4.115-3.509 4.115-6.322 0-3.824-3.124-6.935-6.963-6.935S7.876 5.502 7.876 9.326v.001c0 1.398.418 2.699 1.136 3.783l-.016-.025-2.77-.024c-.009 0-.015.004-.023.005a.523.523 0 0 0-.159.032l.004-.001-.038.013c-.006.003-.013.003-.019.006l-3.235 1.598-1.894.911a.429.429 0 0 0-.064.036l.001-.001a1.78 1.78 0 0 0-.594 2.305l-.005-.01c.22.429.595.745 1.056.889a1.768 1.768 0 0 0 1.388-.133l-.009.005 1.389-.738 2.265-1.169 1.357-.008-6.785 6.752c-.316.315-.49.732-.49 1.178s.174.863.49 1.179c.325.323.752.485 1.179.485s.854-.162 1.18-.485l1.314-1.309 1.742-1.3.901.897-3.104 3.089c-.316.315-.49.732-.49 1.178s.174.863.49 1.179c.325.323.753.485 1.18.485s.855-.162 1.18-.485l3.484-3.47 1.01-1-.004-.004c.006-.006.015-.009.022-.015l5.168-5.66 3.472.494a.513.513 0 0 0 .265-.034l-.003.001c.018-.006.033-.015.05-.023.019-.01.039-.015.058-.027l3.214-2.134c.012-.008.018-.021.029-.029.013-.01.029-.014.041-.026l1.271-1.191a1.78 1.78 0 0 0 .212-2.363zM2.131 17.776a.706.706 0 0 1-.563.05l.005.001a.719.719 0 0 1-.215-1.259l.002-.001 1.314-.632.449 1.313-.992.527zm3.499-1.828-1.549.8-.439-1.283 2.028-1.001-.04 1.485zm15.104-6.623a5.77 5.77 0 0 1-.614 2.593l.015-.033-4.183-1.9A1.87 1.87 0 0 0 15.17 8.6l-.006-.004 1.465-4.862c2.379.756 4.106 2.975 4.106 5.59zm-11.793 0c0-3.236 2.645-5.869 5.896-5.869.253 0 .5.021.745.052L14.15 8.264c-.019-.001-.037-.006-.057-.006-1.033 0-1.874.837-1.874 1.868s.84 1.868 1.874 1.868a1.87 1.87 0 0 0 1.619-.945l3.863 1.756a5.895 5.895 0 0 1-4.739 2.391c-3.251 0-5.896-2.633-5.896-5.869zm5.958.801c0 .441-.362.8-.806.8s-.806-.359-.806-.8c0-.441.362-.8.806-.8s.806.359.806.8zM2.466 25.155a.606.606 0 0 1-.855.001.592.592 0 0 1 0-.844l.962-.958.851.848-.959.955zm3.215 3.735a.606.606 0 0 1-.855.001.592.592 0 0 1 0-.844l.963-.959.852.848-.96.955zm3.482-3.47-.002.001-1.766 1.761-.852-.848 1.766-1.757c.04-.04.065-.088.09-.135.007-.014.02-.026.026-.04.017-.041.019-.085.026-.129.003-.025.014-.047.014-.073 0-.036-.013-.07-.02-.106-.006-.032-.006-.065-.019-.095a.586.586 0 0 0-.091-.139c-.01-.012-.014-.027-.025-.038h-.001l-.001-.002L6.7 22.219c-.017-.017-.039-.024-.058-.038a.563.563 0 0 0-.084-.057l-.003-.001a.444.444 0 0 0-.089-.032l-.004-.001a.502.502 0 0 0-.101-.02h-.023a.468.468 0 0 0-.076.006h.003a.59.59 0 0 0-.108.021l.004-.001a.502.502 0 0 0-.096.046l.002-.001c-.02.011-.042.015-.061.029l-1.774 1.324-.901-.897 2.4-2.387 4.363 4.291-.928.919zm6.822-7.019c-.015-.002-.03.004-.045.003h-.02a.55.55 0 0 0-.282.077l.003-.001a.481.481 0 0 0-.083.061c-.013.011-.028.017-.04.029l-4.7 5.148-4.33-4.258 2.834-2.819a.535.535 0 0 0-.378-.911h-.001v-.001l-2.22.013.028-1.608 3.105.027a6.931 6.931 0 0 0 4.979 2.102h.004c.437 0 .864-.045 1.279-.123.04.032.079.065.13.085l2.411.96.152.758.178.885-3.004-.427zm4.042.178-.313-1.559 1.447-1.08.947 1.257-2.081 1.381zm3.755-2.832-.838.785-.931-1.236.831-.637a.734.734 0 0 1 .547-.143h-.004a.72.72 0 0 1 .479.282l.001.002a.71.71 0 0 1-.085.947z"/>
      <path d="m13.607 18.551-2.144-2.134a.534.534 0 0 0-.754 0l-2.143 2.134a.537.537 0 0 0 0 .756l2.143 2.134a.534.534 0 0 0 .754 0l2.144-2.134a.535.535 0 0 0 0-.756zm-2.52 1.759L9.7 18.929l1.387-1.381 1.387 1.381-1.387 1.381zM17.17 5.073l-.258 1.036c.071.018 1.739.452 1.739 2.15h1.067c0-2.018-1.667-2.966-2.548-3.186zm2.548 4.252h-1.067v1.067h1.067V9.325z"/>
    </symbol>
    <symbol id="icon-clock-1" viewBox="0 0 32 32">
      <path d="M31.308 15.306C31.306 6.851 24.451-.002 15.995 0S.687 6.857.689 15.313c.001 6.79 4.423 12.548 10.545 14.551l.108.031a.657.657 0 0 0 .532-.067l-.003.002a.64.64 0 0 0 .282-.352l.001-.005 3.866-12.254a1.912 1.912 0 0 0-.012-3.826c-.302 0-.587.07-.84.194l.011-.005-5.108-5.109a.637.637 0 1 0-.902.902l5.105 5.111a1.873 1.873 0 0 0 .532 2.307l.004.003-3.684 11.677C3.845 25.791.118 17.715 2.8 10.435S13.558-.573 20.838 2.109c7.281 2.682 11.008 10.758 8.326 18.038-1.345 3.582-4.005 6.408-7.377 7.94l-.088.036-.398-1.875a.638.638 0 0 0-1.05-.344h.001l-3.838 3.427a.637.637 0 0 0 .227 1.083l.005.001 4.901 1.565a.638.638 0 0 0 .818-.745l.001.004-.391-1.84c5.53-2.375 9.332-7.774 9.332-14.062v-.034.002zm-15.31-.637a.639.639 0 1 1 0 1.278.639.639 0 1 1 0-1.278zm2.101 14.869 2.185-1.949.603 2.841-2.788-.892z"/>
      <path d="M15.359 3.186v1.275a.638.638 0 0 0 1.276 0V3.186a.638.638 0 0 0-1.276 0zM3.877 14.669a.638.638 0 0 0 0 1.276h1.275a.638.638 0 0 0 0-1.276H3.877zm24.241 1.276a.638.638 0 0 0 0-1.276h-1.275a.638.638 0 0 0 0 1.276h1.275z"/>
    </symbol>
    <symbol id="icon-diagram-1" viewBox="0 0 32 32">
      <path d="M14.93 14.97h1.066v4.8H14.93v-4.799zm4.267 2.133h1.066v2.666h-1.066v-2.666zm-8.532 1.6h1.066v1.066h-1.066v-1.066zm-3.199-.534h1.066v1.6H7.466v-1.6z"/>
      <path d="M1.6 28.301h25.596a1.601 1.601 0 0 0 1.6-1.599v-2.133a1.601 1.601 0 0 0-1.599-1.6h-.533V9.671l3.029-2.869a1.61 1.61 0 1 0-.742-.754l-.004-.01-2.282 2.164v-1.23a1.601 1.601 0 0 0-1.599-1.6H3.736a1.601 1.601 0 0 0-1.6 1.599v15.998h-.533a1.601 1.601 0 0 0-1.6 1.599v2.133a1.601 1.601 0 0 0 1.599 1.6zM30.395 4.839a.534.534 0 1 1 0 1.068.534.534 0 1 1 0-1.068zM3.199 6.971c0-.294.239-.533.533-.533h21.33c.294 0 .533.239.533.533v2.24l-1.066 1.013V8.037a.533.533 0 0 0-.533-.533H4.799a.533.533 0 0 0-.533.533v13.331c0 .294.239.533.533.533h19.197a.533.533 0 0 0 .533-.533v-9.677l1.066-1.01v12.288H3.199V6.971zm4.8 6.933h-.002a1.6 1.6 0 1 0 1.109 2.75h-.001l1.854.93a.528.528 0 0 0 .636-.123v-.001l3.94-4.433 3.873 2.902a.527.527 0 0 0 .686-.039l3.366-3.189v8.134H5.33V8.571h18.13v2.661l-3.772 3.573-3.905-2.928a.534.534 0 0 0-.718.071v.001l-3.994 4.495-1.494-.746c.011-.064.018-.129.02-.193a1.601 1.601 0 0 0-1.599-1.6zm.533 1.6a.534.534 0 1 1-1.068 0 .534.534 0 1 1 1.068 0zm3.199 8.532h5.333v.533a.533.533 0 0 1-.533.533h-4.265a.533.533 0 0 1-.533-.533v-.533zm-10.665.533c0-.294.239-.533.533-.533h9.065v.533a1.601 1.601 0 0 0 1.599 1.6h4.266a1.601 1.601 0 0 0 1.6-1.599v-.533h9.065c.294 0 .533.239.533.533v2.133a.533.533 0 0 1-.533.533H1.598a.533.533 0 0 1-.533-.533V24.57z"/>
    </symbol>
    <symbol id="icon-facebook-1" viewBox="0 0 32 32">
      <path d="M21.329 5.313h2.921V.225C23.746.156 22.013 0 19.994 0c-4.212 0-7.097 2.649-7.097 7.519V12H8.249v5.688h4.648V32h5.699V17.689h4.46l.708-5.688h-5.169V8.082c.001-1.644.444-2.769 2.735-2.769z"/>
    </symbol>
    <symbol id="icon-instagram-2" viewBox="0 0 32 32">
      <path d="M31.969 9.408c-.075-1.7-.35-2.869-.744-3.882a7.803 7.803 0 0 0-1.85-2.838A7.867 7.867 0 0 0 26.543.844C25.524.45 24.361.175 22.661.1 20.948.019 20.404 0 16.06 0s-4.888.019-6.595.094c-1.7.075-2.869.35-3.882.744a7.803 7.803 0 0 0-2.838 1.85A7.867 7.867 0 0 0 .901 5.52C.507 6.539.232 7.702.157 9.402c-.081 1.713-.1 2.257-.1 6.601s.019 4.888.094 6.595c.075 1.7.35 2.869.744 3.882a7.895 7.895 0 0 0 1.85 2.838 7.867 7.867 0 0 0 2.832 1.844c1.019.394 2.182.669 3.882.744 1.706.075 2.25.094 6.595.094s4.888-.019 6.595-.094c1.7-.075 2.869-.35 3.882-.744a8.181 8.181 0 0 0 4.682-4.682c.394-1.019.669-2.182.744-3.882.075-1.707.094-2.25.094-6.595s-.006-4.888-.081-6.595zm-2.882 13.065c-.069 1.563-.331 2.407-.55 2.969a5.31 5.31 0 0 1-3.038 3.038c-.563.219-1.413.481-2.969.55-1.688.075-2.194.094-6.464.094s-4.782-.019-6.464-.094c-1.563-.069-2.407-.331-2.969-.55a4.926 4.926 0 0 1-1.838-1.194 4.974 4.974 0 0 1-1.194-1.838c-.219-.563-.481-1.413-.55-2.969-.075-1.688-.094-2.194-.094-6.464s.019-4.782.094-6.464c.069-1.563.331-2.407.55-2.969a4.868 4.868 0 0 1 1.2-1.838A4.974 4.974 0 0 1 6.639 3.55c.563-.219 1.413-.481 2.969-.55 1.688-.075 2.194-.094 6.464-.094 4.276 0 4.782.019 6.464.094 1.563.069 2.407.331 2.969.55a4.914 4.914 0 0 1 1.838 1.194 4.974 4.974 0 0 1 1.194 1.838c.219.563.481 1.413.55 2.969.075 1.688.094 2.194.094 6.464s-.019 4.77-.094 6.458z"/>
      <path d="M16.059 7.783c-4.538 0-8.22 3.682-8.22 8.22s3.682 8.22 8.22 8.22 8.22-3.682 8.22-8.22-3.682-8.22-8.22-8.22zm0 13.552a5.333 5.333 0 0 1 0-10.664 5.333 5.333 0 0 1 0 10.664zM26.524 7.458a1.919 1.919 0 1 1-3.838 0 1.919 1.919 0 0 1 3.838 0z"/>
    </symbol>
    <symbol id="icon-linkedin-1" viewBox="0 0 32 32">
      <path d="M31.992 32v-.001H32V20.263c0-5.741-1.236-10.164-7.948-10.164-3.227 0-5.392 1.771-6.276 3.449h-.093v-2.913h-6.364v21.364h6.627V21.42c0-2.785.528-5.479 3.977-5.479 3.399 0 3.449 3.179 3.449 5.657v10.401h6.62zM.528 10.636h6.635V32H.528V10.636zM3.843 0C1.722 0 0 1.721 0 3.843s1.721 3.879 3.843 3.879c2.121 0 3.843-1.757 3.843-3.879A3.846 3.846 0 0 0 3.843 0z"/>
    </symbol>
    <symbol id="icon-twitter-1" viewBox="0 0 32 32">
      <path d="M32 6.078c-1.19.522-2.458.868-3.78 1.036a6.523 6.523 0 0 0 2.886-3.626 13.11 13.11 0 0 1-4.16 1.588A6.574 6.574 0 0 0 22.154 3c-3.632 0-6.556 2.948-6.556 6.562 0 .52.044 1.02.152 1.496-5.454-.266-10.28-2.88-13.522-6.862a6.605 6.605 0 0 0-.898 3.316 6.57 6.57 0 0 0 2.914 5.452 6.479 6.479 0 0 1-2.964-.808v.072c0 3.188 2.274 5.836 5.256 6.446a6.548 6.548 0 0 1-1.72.216 5.8 5.8 0 0 1-1.242-.112c.85 2.598 3.262 4.508 6.13 4.57a13.182 13.182 0 0 1-8.134 2.798c-.538 0-1.054-.024-1.57-.09A18.469 18.469 0 0 0 10.064 29c12.072 0 18.672-10 18.672-18.668 0-.29-.01-.57-.024-.848A13.087 13.087 0 0 0 32 6.078z"/>
    </symbol>
  </defs>
</svg>
